<?xml version="1.0" standalone="no"?>
<!DOCTYPE svg PUBLIC "-//W3C//DTD SVG 20010904//EN"
 "http://www.w3.org/TR/2001/REC-SVG-20010904/DTD/svg10.dtd">
<svg version="1.0" xmlns="http://www.w3.org/2000/svg"
 width="697.000000pt" height="391.000000pt" viewBox="0 0 697.000000 391.000000"
 preserveAspectRatio="xMidYMid meet">

<g transform="translate(0.000000,391.000000) scale(0.100000,-0.100000)"
fill="#000000" stroke="none">
<path d="M555 3368 c-35 -12 -91 -52 -122 -88 -62 -70 -70 -211 -17 -296 24
-41 94 -101 133 -116 5 -2 1 -57 -9 -127 -49 -328 -53 -656 -10 -801 30 -104
75 -185 140 -250 49 -49 135 -110 156 -110 4 0 4 29 1 64 -8 87 7 225 38 328
25 87 25 87 6 130 -40 94 -76 283 -106 558 -8 80 -18 161 -21 181 -5 33 -3 37
25 49 74 30 131 131 131 230 0 80 -23 133 -80 188 -65 64 -180 90 -265 60z"/>
<path d="M6414 3356 c-189 -88 -203 -357 -24 -462 21 -13 30 -26 30 -44 0 -44
-48 -431 -65 -520 -16 -87 -58 -235 -73 -258 -5 -7 1 -41 14 -81 31 -96 46
-209 42 -319 -2 -50 -2 -92 0 -92 24 0 134 81 184 135 42 45 106 181 123 260
35 163 29 418 -16 743 -20 143 -19 162 5 162 22 0 106 80 126 120 88 172 -41
380 -235 380 -42 0 -75 -7 -111 -24z"/>
<path d="M2615 2753 c-106 -14 -239 -75 -322 -148 -70 -61 -144 -174 -174
-266 -34 -104 -34 -273 -1 -370 64 -185 201 -326 382 -391 56 -20 83 -23 200
-23 122 1 141 3 202 27 155 61 265 161 333 303 68 141 82 273 45 420 -75 293
-364 488 -665 448z m247 -240 c80 -38 147 -103 190 -184 32 -61 33 -69 33
-174 0 -98 -3 -116 -27 -167 -75 -161 -256 -258 -427 -228 -129 22 -243 110
-300 230 -23 48 -26 68 -26 160 0 97 2 110 31 170 50 104 147 187 253 217 76
22 199 11 273 -24z"/>
<path d="M4368 2749 c-221 -32 -426 -221 -483 -444 -19 -76 -19 -234 0 -309
53 -203 228 -376 435 -431 65 -17 207 -19 282 -4 99 20 213 83 292 162 120
120 179 258 178 423 0 112 -14 177 -58 269 -115 242 -371 375 -646 334z m213
-215 c157 -46 272 -188 286 -352 21 -249 -210 -464 -455 -423 -213 37 -359
222 -338 431 25 246 271 413 507 344z"/>
<path d="M3330 1340 c-101 -14 -246 -49 -355 -87 -373 -130 -673 -379 -823
-684 -45 -91 -89 -231 -98 -314 -6 -52 -6 -52 25 -63 87 -30 211 -33 1556 -30
1207 3 1367 5 1418 20 32 8 60 18 63 21 10 10 -27 179 -56 259 -155 425 -577
750 -1116 859 -89 18 -150 22 -329 25 -121 1 -249 -1 -285 -6z m385 -280 c113
-11 197 -33 237 -62 23 -16 28 -27 28 -61 0 -87 -64 -153 -175 -182 -123 -32
-345 -30 -466 5 -81 23 -142 86 -154 161 -11 61 26 94 134 119 113 27 253 34
396 20z"/>
</g>
</svg>
