<?xml version="1.0" standalone="no"?>
<!DOCTYPE svg PUBLIC "-//W3C//DTD SVG 20010904//EN"
 "http://www.w3.org/TR/2001/REC-SVG-20010904/DTD/svg10.dtd">
<svg version="1.0" xmlns="http://www.w3.org/2000/svg"
 width="452.000000pt" height="258.000000pt" viewBox="0 0 452.000000 258.000000"
 preserveAspectRatio="xMidYMid meet">

<g transform="translate(0.000000,258.000000) scale(0.100000,-0.100000)"
fill="#000000" stroke="none">
<path d="M2149 1986 c-150 -32 -270 -98 -384 -211 -161 -162 -232 -343 -222
-570 6 -132 24 -203 78 -311 97 -196 268 -334 488 -396 96 -27 272 -30 373 -5
143 35 278 116 381 226 257 279 268 715 25 1008 -90 108 -250 211 -389 249
-78 21 -269 27 -350 10z m305 -171 c95 -25 194 -82 267 -155 309 -307 201
-822 -206 -981 -151 -59 -334 -50 -483 23 -78 39 -195 146 -240 220 -203 339
-34 779 343 889 78 23 240 25 319 4z"/>
</g>
</svg>
