<?xml version="1.0" standalone="no"?>
<!DOCTYPE svg PUBLIC "-//W3C//DTD SVG 20010904//EN"
 "http://www.w3.org/TR/2001/REC-SVG-20010904/DTD/svg10.dtd">
<svg version="1.0" xmlns="http://www.w3.org/2000/svg"
 width="543.000000pt" height="454.000000pt" viewBox="0 0 543.000000 454.000000"
 preserveAspectRatio="xMidYMid meet">

<g transform="translate(0.000000,454.000000) scale(0.100000,-0.100000)"
fill="#000000" stroke="none">
<path d="M1637 3689 c-73 -112 -187 -331 -232 -444 -69 -173 -144 -423 -180
-602 l-6 -32 38 36 c153 144 384 109 524 -80 l28 -38 11 43 c78 305 159 525
249 676 17 29 31 56 30 60 0 4 -26 19 -57 34 -38 18 -90 59 -154 121 -104 102
-148 172 -171 274 l-13 56 -67 -104z"/>
<path d="M3766 3738 c-14 -88 -63 -167 -165 -267 -99 -97 -150 -135 -196 -147
-14 -3 -25 -9 -23 -13 2 -3 33 -67 70 -141 94 -191 163 -392 212 -613 l7 -28
40 51 c82 104 216 169 321 157 62 -8 143 -44 191 -87 20 -17 37 -28 37 -23 0
21 -71 297 -100 388 -58 181 -144 381 -228 530 -56 100 -144 235 -153 235 -3
0 -9 -19 -13 -42z"/>
<path d="M246 432 c-54 -58 -41 -139 32 -204 175 -153 762 -240 1337 -198 460
34 695 121 735 272 24 87 -24 158 -106 158 -54 0 -100 -36 -110 -86 -4 -24
-13 -36 -28 -39 -11 -2 -60 -13 -107 -24 -347 -80 -1008 -87 -1396 -16 -122
23 -151 38 -173 89 -24 56 -53 76 -110 76 -38 0 -51 -5 -74 -28z"/>
<path d="M3167 439 c-46 -35 -54 -120 -19 -185 32 -61 149 -126 287 -162 237
-62 680 -88 1029 -61 492 38 806 162 806 318 0 70 -44 111 -120 111 -33 0 -48
-6 -71 -29 -16 -16 -29 -38 -29 -49 0 -71 -211 -113 -658 -132 -354 -15 -668
7 -922 65 -62 14 -114 25 -116 25 -2 0 -4 10 -4 23 0 24 -23 64 -50 84 -25 20
-104 16 -133 -8z"/>
</g>
</svg>
