<?xml version="1.0" standalone="no"?>
<!DOCTYPE svg PUBLIC "-//W3C//DTD SVG 20010904//EN"
 "http://www.w3.org/TR/2001/REC-SVG-20010904/DTD/svg10.dtd">
<svg version="1.0" xmlns="http://www.w3.org/2000/svg"
 width="260.000000pt" height="448.000000pt" viewBox="0 0 260.000000 448.000000"
 preserveAspectRatio="xMidYMid meet">

<g transform="translate(0.000000,448.000000) scale(0.100000,-0.100000)"
fill="#000000" stroke="none">
<path d="M1642 4390 c-46 -28 -72 -76 -72 -132 0 -26 16 -147 36 -269 32 -197
36 -244 19 -227 -3 2 -19 93 -36 201 -21 126 -39 208 -50 227 -61 99 -218 91
-269 -15 -11 -23 -20 -50 -20 -61 0 -10 20 -140 44 -289 58 -353 62 -433 27
-476 l-20 -24 -21 21 c-24 24 -33 79 -48 302 -7 98 -12 128 -28 149 -37 50
-70 67 -128 67 -61 1 -95 -18 -135 -75 -23 -33 -23 -37 -16 -189 11 -265 32
-362 103 -479 37 -61 120 -153 178 -197 l31 -24 65 43 c153 103 473 197 668
197 119 0 260 -39 312 -87 21 -19 20 -20 46 32 29 59 46 156 39 233 -6 71
-139 820 -158 887 -20 72 -77 115 -151 115 -60 0 -105 -30 -130 -87 l-20 -46
32 -204 c18 -112 30 -206 27 -210 -8 -8 -12 12 -57 292 -43 266 -48 280 -110
323 -43 29 -112 30 -158 2z"/>
<path d="M1318 1131 c-118 -240 -271 -407 -448 -492 -47 -22 -101 -48 -120
-57 -24 -12 -43 -33 -63 -72 -27 -51 -29 -61 -25 -145 5 -106 24 -150 91 -212
41 -38 96 -63 139 -63 32 0 141 42 232 88 154 79 319 214 436 357 115 140 236
349 298 511 l19 50 -56 -14 c-137 -36 -313 31 -411 154 l-25 32 -67 -137z"/>
</g>
</svg>
