<?xml version="1.0" standalone="no"?>
<!DOCTYPE svg PUBLIC "-//W3C//DTD SVG 20010904//EN"
 "http://www.w3.org/TR/2001/REC-SVG-20010904/DTD/svg10.dtd">
<svg version="1.0" xmlns="http://www.w3.org/2000/svg"
 width="260.000000pt" height="448.000000pt" viewBox="0 0 260.000000 448.000000"
 preserveAspectRatio="xMidYMid meet">

<g transform="translate(0.000000,448.000000) scale(0.100000,-0.100000)"
fill="#000000" stroke="none">
<path d="M800 4388 c-62 -43 -67 -57 -110 -323 -45 -279 -49 -300 -57 -292 -3
4 9 98 27 210 l32 204 -20 46 c-58 130 -242 112 -281 -28 -6 -22 -43 -215 -83
-430 -57 -309 -72 -411 -72 -490 -1 -101 18 -186 50 -229 13 -18 15 -18 32 -3
31 28 125 65 197 78 208 36 612 -64 797 -196 58 -42 54 -43 158 59 150 148
191 271 206 611 6 146 5 151 -17 184 -40 57 -74 76 -135 75 -58 0 -91 -17
-128 -67 -16 -21 -21 -51 -28 -149 -15 -221 -24 -278 -47 -301 -19 -19 -23
-20 -36 -6 -23 23 -35 116 -25 195 5 38 28 181 50 319 24 147 39 263 35 282
-7 38 -46 88 -86 108 -40 21 -108 19 -147 -5 -55 -34 -67 -66 -101 -277 -17
-108 -33 -199 -36 -201 -17 -17 -13 30 19 227 42 256 44 303 16 349 -44 71
-143 95 -210 50z"/>
<path d="M1184 1230 c-36 -50 -126 -112 -196 -137 -59 -20 -194 -23 -240 -5
l-26 11 31 -77 c151 -376 418 -688 723 -844 91 -46 200 -88 232 -88 43 0 98
25 139 63 67 62 86 106 91 212 4 84 2 94 -25 145 -30 58 -34 61 -168 120 -185
82 -351 265 -475 522 l-56 118 -30 -40z"/>
</g>
</svg>
