<?xml version="1.0" standalone="no"?>
<!DOCTYPE svg PUBLIC "-//W3C//DTD SVG 20010904//EN"
 "http://www.w3.org/TR/2001/REC-SVG-20010904/DTD/svg10.dtd">
<svg version="1.0" xmlns="http://www.w3.org/2000/svg"
 width="3000.000000pt" height="2000.000000pt" viewBox="0 0 3000.000000 2000.000000"
 preserveAspectRatio="xMidYMid meet">

<g transform="translate(0.000000,2000.000000) scale(0.100000,-0.100000)"
fill="#000000" stroke="none">
<path d="M21465 18224 c-164 -36 -288 -104 -405 -223 -70 -70 -94 -104 -133
-181 -68 -137 -89 -225 -91 -390 -2 -200 35 -335 129 -480 167 -258 490 -393
835 -351 362 45 635 286 704 623 20 99 21 294 1 388 -64 302 -275 525 -575
605 -93 25 -369 30 -465 9z m305 -401 c162 -52 264 -264 233 -481 -28 -193
-140 -315 -301 -329 -97 -9 -163 16 -237 90 -91 92 -109 144 -109 317 0 117 3
143 23 193 30 76 75 134 135 175 81 54 162 66 256 35z"/>
<path d="M25000 18233 c-151 -25 -317 -105 -422 -202 -115 -106 -184 -222
-225 -380 -34 -129 -36 -334 -4 -456 76 -291 294 -506 582 -575 431 -103 847
76 1009 434 91 200 97 497 15 699 -98 240 -314 417 -577 471 -72 15 -310 21
-378 9z m258 -408 c64 -19 153 -98 188 -166 114 -226 40 -538 -148 -619 -239
-103 -458 79 -458 380 0 287 191 472 418 405z"/>
<path d="M19320 17420 l0 -790 250 0 250 0 0 300 0 300 54 0 54 0 37 -150 c69
-276 145 -383 325 -451 108 -41 313 -43 407 -4 l33 14 0 183 0 184 -92 -1
c-80 0 -99 3 -135 24 -49 28 -83 86 -107 182 -24 100 -24 102 43 138 136 72
213 179 234 324 38 267 -151 474 -483 527 -36 5 -242 10 -467 10 l-403 0 0
-790z m771 439 c76 -16 120 -60 126 -125 9 -103 -53 -157 -200 -175 -46 -6
-108 -9 -138 -7 l-54 3 -3 158 -3 157 110 0 c61 0 133 -5 162 -11z"/>
<path d="M22740 17422 l0 -790 43 -6 c92 -12 539 -27 647 -21 401 23 623 121
722 322 29 60 33 78 36 169 5 121 -12 191 -61 256 -42 55 -114 104 -185 124
l-56 17 42 16 c75 29 127 74 158 137 27 54 29 68 29 169 0 94 -3 116 -22 151
-50 94 -160 172 -303 215 -73 22 -89 23 -562 27 l-488 3 0 -789z m820 464 c91
-45 114 -170 43 -238 -49 -47 -91 -58 -223 -58 l-120 0 0 161 0 162 133 -5
c97 -4 141 -10 167 -22z m1 -568 c89 -30 134 -96 127 -185 -3 -32 -13 -65 -25
-81 -48 -65 -166 -96 -323 -84 l-85 7 -3 178 -2 177 138 0 c79 0 154 -5 173
-12z"/>
<path d="M26110 18035 l0 -175 165 0 165 0 0 -615 0 -615 265 0 265 0 0 615 0
615 165 0 165 0 0 175 0 175 -595 0 -595 0 0 -175z"/>
<path d="M2235 17864 c-59 -21 -110 -67 -139 -126 -65 -131 -6 -304 122 -357
17 -7 30 -16 28 -20 -10 -16 -48 -348 -55 -480 -18 -335 24 -530 145 -669 38
-43 154 -132 173 -132 3 0 6 57 7 128 0 98 5 147 23 217 13 50 27 98 32 107 6
11 3 33 -11 67 -44 113 -79 305 -116 631 -11 106 -13 145 -4 148 33 11 97 73
119 116 71 137 16 297 -124 362 -58 28 -137 31 -200 8z"/>
<path d="M8122 17868 c-45 -15 -119 -82 -144 -131 -11 -23 -23 -70 -26 -104
-4 -56 -1 -70 28 -129 29 -59 81 -113 122 -126 7 -3 5 -53 -7 -158 -34 -314
-73 -526 -114 -623 -17 -40 -17 -43 5 -113 30 -94 47 -229 42 -326 -3 -43 -2
-78 2 -78 20 0 131 83 172 129 156 173 189 456 118 989 -11 81 -20 153 -20
159 0 7 17 21 38 32 46 23 98 81 120 130 20 47 19 155 -1 202 -43 96 -123 151
-231 155 -39 2 -86 -2 -104 -8z"/>
<path d="M9715 17868 c-35 -12 -91 -52 -122 -88 -62 -70 -70 -211 -17 -296 24
-41 94 -101 133 -116 5 -2 1 -57 -9 -127 -45 -306 -52 -652 -16 -786 27 -101
83 -202 145 -264 50 -50 136 -111 157 -111 4 0 4 29 1 64 -8 87 7 225 38 328
24 86 25 88 6 130 -40 94 -77 288 -106 558 -8 80 -18 161 -21 181 -5 33 -3 37
25 49 74 30 131 131 131 230 0 80 -23 133 -80 188 -65 64 -180 90 -265 60z"/>
<path d="M15574 17856 c-86 -40 -154 -144 -154 -236 0 -82 60 -185 131 -227
36 -21 35 -14 4 -277 -29 -243 -62 -417 -96 -501 l-24 -60 21 -65 c31 -93 47
-211 43 -318 -2 -50 -2 -92 1 -92 22 1 116 69 163 118 67 71 118 171 144 282
34 149 20 520 -33 850 -5 31 -3 37 20 48 39 18 106 82 126 122 88 172 -41 380
-235 380 -42 0 -75 -7 -111 -24z"/>
<path d="M4286 17250 c-137 -25 -233 -75 -332 -175 -115 -115 -174 -259 -174
-420 1 -206 95 -388 261 -501 104 -70 179 -95 309 -101 182 -9 321 42 447 161
340 320 202 888 -247 1020 -67 20 -199 28 -264 16z m168 -552 c155 -88 287
-167 295 -174 36 -33 -70 -184 -166 -236 -186 -100 -412 -28 -505 160 -31 62
-33 74 -33 167 0 86 4 107 24 145 38 72 71 112 89 105 8 -3 142 -78 296 -167z"/>
<path d="M6060 17249 c-219 -32 -414 -204 -482 -424 -26 -83 -30 -229 -9 -315
51 -210 235 -396 442 -445 82 -19 218 -19 294 0 169 43 317 162 392 316 49
100 63 161 63 276 0 167 -57 301 -179 423 -142 141 -320 199 -521 169z m369
-416 c54 -65 73 -134 69 -239 -5 -110 -35 -180 -110 -250 -175 -164 -460 -123
-570 83 -47 88 -48 86 34 134 230 135 534 309 540 309 3 0 20 -17 37 -37z"/>
<path d="M11775 17254 c-111 -17 -239 -77 -322 -149 -70 -61 -144 -174 -174
-266 -34 -104 -34 -273 -1 -370 62 -181 192 -316 370 -387 61 -24 79 -26 207
-26 128 0 146 2 207 26 298 119 456 419 378 723 -52 203 -214 369 -420 429
-56 17 -193 28 -245 20z m247 -241 c84 -39 152 -107 191 -191 30 -62 32 -75
32 -172 0 -93 -3 -112 -27 -162 -55 -118 -170 -205 -302 -229 -166 -30 -349
69 -424 229 -24 50 -27 69 -27 162 0 97 2 110 31 170 49 103 146 187 253 217
76 22 199 11 273 -24z"/>
<path d="M13513 17246 c-118 -23 -215 -76 -308 -170 -126 -127 -175 -246 -175
-426 0 -173 54 -304 176 -426 115 -117 256 -174 424 -174 107 0 170 14 268 62
151 71 274 221 317 384 19 71 21 230 5 299 -48 199 -213 375 -407 435 -84 26
-211 33 -300 16z m228 -212 c157 -46 272 -188 286 -352 14 -173 -99 -347 -267
-408 -60 -22 -180 -22 -251 -1 -71 21 -164 91 -206 154 -52 77 -66 127 -67
228 0 80 3 97 30 155 17 36 46 83 64 104 100 114 266 162 411 120z"/>
<path d="M19296 16266 c-85 -32 -131 -112 -130 -227 1 -160 85 -241 235 -225
83 8 89 12 89 57 0 38 -1 39 -27 32 -53 -15 -139 -9 -161 10 -45 41 -54 172
-16 236 30 50 92 65 159 37 l34 -14 14 36 c15 36 14 37 -9 50 -38 20 -143 25
-188 8z"/>
<path d="M20181 16258 c-21 -57 -151 -429 -151 -433 0 -3 22 -5 50 -5 l49 0
17 55 16 56 86 -3 85 -3 15 -52 15 -53 48 0 c33 0 49 4 48 13 0 6 -35 109 -77
227 l-77 215 -58 3 c-52 3 -58 1 -66 -20z m97 -156 l30 -92 -59 0 c-32 0 -59
2 -59 6 0 10 54 184 56 181 1 -1 16 -44 32 -95z"/>
<path d="M21005 16143 c-26 -76 -62 -180 -81 -230 l-33 -93 52 0 52 0 15 53
15 52 86 3 86 3 14 -53 14 -53 54 -3 c48 -3 53 -1 46 15 -6 15 -77 217 -142
401 l-15 42 -58 0 -57 0 -48 -137z m159 -108 c6 -25 5 -25 -53 -25 l-59 0 24
83 c14 45 27 89 30 97 5 13 39 -78 58 -155z"/>
<path d="M21507 16265 c-78 -27 -127 -100 -134 -200 -8 -101 28 -189 94 -227
42 -25 120 -33 182 -18 51 12 51 12 51 52 0 34 -3 39 -17 33 -10 -4 -44 -9
-75 -12 -44 -4 -63 -2 -84 11 -77 51 -70 247 11 284 34 16 64 15 113 -2 l41
-15 11 34 c14 44 10 50 -44 64 -58 14 -102 13 -149 -4z"/>
<path d="M23248 16270 c-51 -15 -94 -49 -117 -91 -29 -51 -39 -162 -22 -227
26 -94 113 -149 220 -139 81 7 101 19 101 64 0 32 -2 35 -22 29 -13 -4 -48
-10 -79 -13 -52 -5 -58 -3 -90 25 -31 27 -34 35 -37 100 -9 151 54 211 175
168 l40 -14 12 34 c7 19 10 38 7 43 -15 24 -134 37 -188 21z"/>
<path d="M23625 16261 c-50 -22 -91 -69 -105 -119 -14 -50 -13 -146 2 -196 42
-139 251 -183 358 -76 42 42 60 95 60 176 0 153 -75 234 -215 234 -37 0 -76
-8 -100 -19z m173 -83 c30 -33 42 -71 42 -134 0 -101 -40 -154 -115 -154 -76
0 -115 53 -115 155 0 105 39 155 120 155 35 0 52 -5 68 -22z"/>
<path d="M25968 16270 c-51 -15 -94 -49 -117 -91 -29 -51 -39 -162 -22 -227
26 -94 113 -149 220 -139 81 7 101 19 101 64 0 32 -2 35 -22 29 -13 -4 -48
-10 -79 -13 -52 -5 -58 -3 -90 25 -31 27 -34 35 -37 100 -9 151 54 211 175
168 l40 -14 12 34 c7 19 10 38 7 43 -15 24 -134 37 -188 21z"/>
<path d="M26715 16261 c-79 -35 -115 -103 -115 -215 0 -81 18 -134 60 -176
110 -110 322 -61 358 83 49 191 -36 327 -203 327 -37 0 -76 -8 -100 -19z m163
-77 c35 -24 52 -68 52 -134 0 -107 -38 -160 -115 -160 -76 0 -115 53 -115 155
0 65 19 116 51 139 30 20 98 21 127 0z"/>
<path d="M19590 16045 l0 -225 50 0 50 0 0 100 0 100 90 0 90 0 0 -100 0 -100
50 0 50 0 0 225 0 225 -50 0 -50 0 0 -90 0 -90 -90 0 -90 0 0 90 0 90 -50 0
-50 0 0 -225z"/>
<path d="M20530 16045 l0 -225 45 0 45 0 0 85 0 85 29 0 c25 0 35 -10 80 -85
l53 -85 49 0 c27 0 49 2 49 5 0 3 -28 47 -61 97 l-61 91 29 23 c39 31 57 74
50 125 -11 82 -62 109 -207 109 l-100 0 0 -225z m197 133 c18 -14 16 -73 -2
-88 -8 -7 -35 -15 -60 -18 l-45 -5 0 60 c0 33 3 63 8 67 9 10 82 -2 99 -16z"/>
<path d="M21750 16235 l0 -34 63 -3 62 -3 3 -187 2 -188 45 0 45 0 2 188 3
187 63 3 62 3 0 34 0 35 -175 0 -175 0 0 -35z"/>
<path d="M22170 16045 l0 -225 130 0 130 0 0 40 0 40 -80 0 -80 0 0 60 0 60
75 0 75 0 0 35 0 35 -75 0 -75 0 0 55 0 55 80 0 80 0 0 35 0 35 -130 0 -130 0
0 -225z"/>
<path d="M22530 16045 l0 -225 50 0 50 0 0 86 0 85 27 -3 c22 -2 37 -19 78
-85 l50 -82 53 -1 52 0 -63 95 -64 96 38 38 c34 34 39 45 39 84 0 106 -46 137
-205 137 l-105 0 0 -225z m169 145 c19 -5 38 -15 43 -22 26 -43 -18 -98 -78
-98 l-34 0 0 65 c0 72 3 74 69 55z"/>
<path d="M24040 16045 l0 -225 40 0 40 0 2 169 3 170 96 -167 95 -167 62 -3
62 -3 0 226 0 225 -40 0 -40 0 -2 -167 -3 -168 -95 165 -96 165 -62 3 -62 3 0
-226z"/>
<path d="M24510 16235 l0 -34 63 -3 62 -3 3 -187 2 -188 45 0 45 0 2 188 3
187 63 3 62 3 0 34 0 35 -175 0 -175 0 0 -35z"/>
<path d="M24930 16045 l0 -225 50 0 50 0 0 86 0 85 27 -3 c22 -2 37 -19 78
-85 l50 -82 53 -1 52 0 -63 95 -64 96 38 38 c34 34 39 45 39 84 0 106 -46 137
-205 137 l-105 0 0 -225z m169 145 c19 -5 38 -15 43 -22 26 -43 -18 -98 -78
-98 l-34 0 0 65 c0 72 3 74 69 55z"/>
<path d="M25352 16093 c3 -168 4 -180 26 -211 36 -49 76 -66 157 -67 81 0 126
21 162 75 22 31 23 43 23 206 l0 174 -44 0 -45 0 -3 -171 c-3 -166 -4 -171
-27 -190 -34 -27 -93 -25 -128 5 l-28 24 -4 166 -3 166 -45 0 -45 0 4 -177z"/>
<path d="M26200 16235 l0 -34 63 -3 62 -3 3 -187 2 -188 45 0 45 0 2 188 3
187 63 3 62 3 0 34 0 35 -175 0 -175 0 0 -35z"/>
<path d="M27130 16045 l0 -225 45 0 45 0 0 85 0 85 29 0 c26 0 36 -10 83 -85
l53 -85 53 0 53 0 -66 95 -66 95 40 38 c37 35 41 43 41 89 0 99 -54 133 -210
133 l-100 0 0 -225z m203 124 c22 -27 22 -41 -1 -69 -14 -17 -30 -23 -63 -24
l-44 -1 -3 49 c-5 72 1 80 51 72 24 -4 49 -15 60 -27z"/>
<path d="M4992 15835 c-437 -67 -825 -288 -1053 -600 -103 -141 -205 -404
-197 -505 6 -66 -52 -64 1483 -67 1343 -4 1436 -2 1546 27 l36 10 -9 62 c-18
140 -93 325 -185 457 -206 297 -545 507 -962 598 -100 21 -147 25 -341 28
-161 3 -252 0 -318 -10z m724 -228 c102 -69 121 -212 41 -304 -63 -72 -68 -73
-477 -73 -235 0 -379 4 -405 11 -25 7 -56 27 -82 54 -98 102 -71 257 56 325
34 18 58 19 431 17 l395 -2 41 -28z"/>
<path d="M12465 15835 c-241 -39 -494 -131 -669 -243 -214 -138 -386 -323
-484 -523 -45 -91 -89 -231 -98 -314 -6 -52 -6 -52 25 -63 87 -30 211 -33
1556 -30 1207 3 1367 5 1418 20 32 8 60 18 63 21 10 10 -27 179 -56 259 -155
425 -579 750 -1116 859 -142 28 -499 36 -639 14z m407 -275 c116 -11 218 -38
249 -66 25 -22 25 -88 0 -134 -41 -78 -141 -117 -326 -126 -159 -9 -299 14
-366 59 -70 47 -109 148 -73 189 37 40 116 65 253 78 115 11 146 11 263 0z"/>
<path d="M19504 14490 c-150 -60 -239 -228 -199 -381 26 -103 80 -173 173
-221 33 -18 42 -27 38 -43 -15 -61 -58 -443 -67 -599 -24 -399 34 -656 186
-823 48 -54 163 -141 206 -158 12 -4 14 19 15 147 1 162 14 246 58 375 15 45
21 75 15 84 -5 8 -22 56 -39 106 -49 152 -73 298 -136 849 l-6 51 45 26 c60
36 112 98 138 166 28 75 23 185 -11 256 -31 63 -92 125 -155 155 -69 34 -190
38 -261 10z"/>
<path d="M26873 14496 c-117 -38 -200 -134 -223 -258 -13 -65 3 -158 35 -214
26 -45 102 -118 139 -136 20 -8 24 -17 21 -37 -3 -14 -14 -111 -25 -216 -39
-359 -82 -586 -135 -719 l-25 -63 24 -69 c41 -120 58 -246 54 -392 -2 -73 1
-132 5 -132 18 0 152 93 192 134 145 148 202 316 212 622 7 232 -8 424 -63
806 l-6 46 49 26 c191 97 232 366 78 521 -59 59 -125 87 -215 91 -45 3 -91 -2
-117 -10z"/>
<path d="M2236 13825 c-57 -20 -108 -66 -138 -125 -68 -130 -10 -306 120 -359
17 -7 30 -16 28 -20 -2 -3 -14 -80 -26 -171 -41 -315 -43 -592 -4 -742 35
-138 112 -251 218 -322 86 -57 81 -62 82 81 0 124 25 268 54 323 7 14 5 32
-10 69 -27 69 -56 187 -74 306 -13 85 -56 439 -56 463 0 4 16 16 36 27 108 58
155 214 100 330 -59 125 -202 186 -330 140z"/>
<path d="M8110 13819 c-155 -70 -205 -247 -111 -390 16 -24 48 -55 70 -69 22
-14 41 -31 41 -38 0 -25 -41 -370 -55 -462 -19 -116 -51 -249 -74 -303 -17
-40 -17 -43 5 -112 31 -98 47 -221 42 -321 -2 -46 -1 -84 2 -84 20 0 131 84
172 129 156 173 189 456 118 989 -11 81 -20 153 -20 159 0 7 17 21 38 32 84
43 134 129 135 231 1 107 -57 195 -158 241 -55 25 -147 24 -205 -2z"/>
<path d="M10802 13770 c-46 -28 -72 -76 -72 -132 0 -26 16 -147 36 -269 32
-197 36 -244 19 -227 -3 2 -19 93 -36 201 -21 126 -39 208 -50 227 -61 99
-218 91 -269 -15 -11 -23 -20 -50 -20 -61 0 -10 20 -140 44 -289 58 -351 62
-433 27 -476 -17 -21 -21 -22 -36 -9 -29 24 -35 57 -46 229 -6 91 -15 180 -20
198 -23 72 -119 118 -193 93 -40 -13 -93 -68 -102 -106 -4 -14 -1 -113 5 -220
13 -218 32 -303 96 -409 36 -59 134 -168 187 -206 l27 -20 49 36 c185 132 589
232 797 196 72 -13 166 -50 197 -78 21 -19 19 -20 46 33 28 56 46 164 39 238
-7 70 -141 820 -158 881 -20 72 -77 115 -151 115 -60 0 -105 -30 -130 -87
l-20 -46 32 -204 c18 -112 30 -206 27 -210 -8 -8 -12 12 -57 292 -43 266 -48
281 -110 323 -43 29 -112 30 -158 2z"/>
<path d="M15061 13768 c-63 -43 -73 -65 -87 -205 -8 -70 -17 -215 -20 -320 -6
-148 -10 -193 -20 -193 -16 0 -19 11 -85 295 -29 121 -56 238 -61 260 -12 49
-66 102 -113 111 -81 15 -151 -24 -179 -99 -16 -42 -16 -44 48 -289 35 -137
60 -250 55 -254 -5 -3 -9 -13 -9 -22 0 -11 -24 -30 -67 -51 -111 -58 -179
-115 -209 -177 -25 -52 -27 -61 -21 -152 7 -104 16 -145 49 -232 25 -65 102
-188 122 -196 8 -3 36 6 62 19 122 61 315 105 504 114 195 9 341 -24 441 -99
28 -22 55 -36 60 -31 22 23 62 123 76 190 14 71 14 95 -6 352 -12 152 -27 295
-33 319 -12 46 -61 97 -104 108 -36 9 -100 -1 -130 -21 -34 -22 -67 -98 -62
-141 2 -19 0 -34 -6 -34 -11 0 -3 255 15 496 12 153 12 162 -7 194 -29 50 -66
73 -126 78 -44 3 -59 0 -87 -20z"/>
<path d="M22025 13714 c-107 -23 -257 -100 -338 -174 -145 -134 -224 -285
-247 -477 -28 -231 52 -458 219 -623 159 -156 353 -230 571 -217 119 7 193 26
295 76 199 98 353 293 401 508 25 114 16 302 -20 408 -40 119 -98 209 -191
301 -69 67 -101 90 -186 132 -162 80 -332 102 -504 66z m292 -258 c79 -21 141
-56 204 -114 135 -124 191 -291 155 -462 -21 -101 -57 -170 -127 -244 -196
-210 -523 -209 -721 3 -145 155 -177 371 -82 561 63 125 203 234 339 263 46
10 184 6 232 -7z"/>
<path d="M24245 13715 c-270 -62 -482 -262 -566 -535 -19 -61 -24 -98 -24
-200 0 -150 15 -215 82 -350 39 -80 60 -109 137 -185 101 -100 190 -154 326
-196 98 -31 299 -33 400 -6 251 70 453 264 530 512 34 108 39 285 11 395 -68
269 -254 467 -516 550 -89 28 -289 36 -380 15z m296 -261 c142 -42 255 -139
316 -271 32 -69 37 -89 41 -180 4 -84 1 -113 -17 -171 -60 -199 -236 -337
-442 -350 -149 -8 -275 38 -377 137 -267 260 -166 708 186 828 83 28 211 31
293 7z"/>
<path d="M12903 13251 c-90 -41 -100 -171 -17 -226 124 -81 248 -279 279 -447
l7 -35 61 25 c38 16 89 27 129 30 78 5 75 -8 31 137 -68 219 -240 453 -380
517 -48 22 -59 22 -110 -1z"/>
<path d="M4286 13210 c-136 -24 -232 -75 -332 -174 -124 -124 -182 -277 -172
-459 11 -199 109 -367 277 -476 92 -59 168 -82 291 -88 181 -9 322 42 450 163
337 318 198 887 -250 1018 -67 20 -199 28 -264 16z m265 -238 c132 -63 219
-189 227 -331 21 -364 -401 -565 -666 -317 -162 152 -168 406 -13 565 85 87
176 123 302 117 70 -3 97 -9 150 -34z"/>
<path d="M6075 13213 c-163 -22 -322 -120 -413 -257 -115 -172 -140 -361 -72
-553 64 -184 254 -346 448 -384 88 -17 241 -7 321 21 87 31 202 111 261 181
57 68 113 180 129 257 16 76 14 214 -5 286 -41 160 -171 320 -316 390 -110 53
-238 74 -353 59z m207 -224 c280 -94 367 -448 160 -653 -199 -200 -525 -143
-645 112 -29 61 -32 76 -32 162 1 121 24 183 100 268 55 60 129 106 198 122
62 15 156 11 219 -11z"/>
<path d="M12644 12996 c-48 -21 -74 -62 -74 -113 0 -69 21 -98 98 -137 117
-59 182 -149 223 -308 12 -45 23 -85 25 -87 2 -2 27 18 56 44 29 26 79 66 111
89 65 46 65 43 22 149 -61 151 -164 271 -286 331 -87 43 -133 51 -175 32z"/>
<path d="M12391 12472 c-21 -10 -43 -33 -55 -56 -19 -38 -19 -42 -4 -118 22
-107 57 -178 120 -245 48 -51 130 -113 150 -113 4 0 17 19 29 43 12 23 41 70
65 105 24 35 44 67 44 71 0 5 -13 14 -30 21 -62 26 -130 136 -130 210 0 24
-36 68 -70 85 -38 20 -77 19 -119 -3z"/>
<path d="M23120 11974 c-236 -22 -473 -76 -660 -150 -580 -230 -977 -672
-1066 -1186 -8 -50 -12 -94 -7 -99 4 -4 40 -16 78 -26 63 -16 140 -18 775 -23
l705 -5 3 -89 3 -88 27 6 c129 28 237 38 372 32 80 -3 173 -12 207 -19 l62
-14 3 86 3 86 720 6 c714 5 737 6 841 40 35 11 35 12 7 154 -72 372 -348 742
-728 975 -102 63 -316 163 -425 200 -122 40 -267 75 -400 95 -102 15 -430 27
-520 19z m445 -374 c108 -20 182 -49 211 -83 22 -26 25 -37 20 -71 -23 -143
-124 -211 -355 -237 -110 -13 -295 -6 -392 15 -158 34 -249 120 -249 236 0 80
92 125 309 150 94 11 375 5 456 -10z"/>
<path d="M5015 11799 c-115 -15 -307 -66 -417 -109 -429 -170 -739 -492 -834
-867 -13 -52 -24 -110 -24 -128 0 -76 15 -76 1585 -73 1206 3 1367 6 1418 20
32 8 60 17 62 19 2 2 -2 39 -10 81 -87 504 -547 915 -1161 1039 -88 17 -151
22 -329 25 -121 1 -251 -2 -290 -7z m766 -348 c31 -31 39 -83 19 -122 -26 -48
-38 -49 -529 -49 -309 0 -468 4 -484 11 -60 27 -75 113 -28 160 l29 29 482 0
482 0 29 -29z"/>
<path d="M12727 10602 c-65 -203 -198 -413 -329 -521 -37 -31 -103 -74 -146
-96 -65 -34 -80 -47 -100 -85 -20 -39 -23 -56 -19 -120 11 -194 142 -339 270
-300 55 16 183 85 247 133 209 154 363 345 485 599 48 100 125 307 125 336 0
7 -15 5 -42 -5 -123 -46 -306 -4 -407 94 -30 29 -55 53 -55 53 -1 0 -14 -40
-29 -88z"/>
<path d="M10495 10543 c-118 -255 -290 -446 -475 -530 -142 -64 -143 -65 -172
-122 -36 -68 -39 -171 -8 -255 34 -89 132 -166 212 -166 32 0 141 42 232 88
211 108 401 286 550 515 61 92 151 267 184 354 l20 52 -22 -8 c-141 -54 -342
13 -446 146 l-25 33 -50 -107z"/>
<path d="M14355 10510 c-160 -272 -372 -455 -594 -511 -89 -23 -115 -39 -158
-102 -133 -196 24 -462 245 -416 339 70 668 315 905 674 32 50 72 115 87 145
l28 55 -78 -4 c-92 -4 -159 15 -235 65 -61 40 -107 87 -133 136 l-19 38 -48
-80z"/>
<path d="M23090 9951 c-347 -76 -625 -346 -716 -696 -37 -144 -37 -327 0 -470
70 -271 252 -496 501 -619 151 -75 220 -90 425 -90 162 0 182 2 263 27 171 53
305 135 422 258 172 182 252 371 262 624 8 211 -38 382 -149 553 -127 194
-311 331 -535 398 -120 36 -344 43 -473 15z m393 -207 c406 -105 645 -522 533
-931 -68 -248 -274 -448 -537 -519 -97 -26 -272 -24 -373 4 -136 39 -232 94
-330 190 -139 136 -209 291 -223 492 -14 218 69 424 233 581 110 105 252 175
402 199 75 12 218 4 295 -16z"/>
<path d="M21022 9510 c-312 -166 -605 -455 -820 -810 l-21 -36 87 0 c65 0 104
-5 155 -23 127 -43 252 -148 299 -252 13 -27 25 -49 28 -49 3 1 25 33 50 73
111 178 280 357 448 472 1 1 -24 29 -56 62 -146 153 -185 391 -92 573 11 22
19 40 18 40 -2 0 -45 -23 -96 -50z"/>
<path d="M25528 9497 c78 -193 38 -407 -104 -550 -31 -31 -55 -59 -53 -61 2
-2 31 -24 64 -48 128 -95 299 -287 401 -450 16 -27 31 -48 34 -48 3 0 14 21
24 48 26 62 142 178 222 220 84 44 183 66 262 58 l63 -7 -27 43 c-244 388
-527 663 -852 827 l-59 30 25 -62z"/>
<path d="M11200 8986 c-260 -58 -526 -216 -730 -433 -104 -111 -270 -337 -270
-368 0 -4 17 -4 38 -1 129 22 321 -85 386 -215 l24 -48 37 57 c183 276 433
470 643 498 69 9 110 37 141 99 23 44 26 62 26 150 0 83 -4 109 -23 150 -53
116 -122 144 -272 111z"/>
<path d="M14105 8982 c-85 -53 -119 -139 -113 -276 7 -153 47 -205 173 -231
97 -20 235 -85 326 -154 93 -71 214 -202 285 -309 l61 -91 17 36 c28 59 66
102 130 147 77 54 152 80 238 80 77 0 78 -8 -5 116 -135 201 -336 400 -522
517 -144 91 -361 170 -490 179 -58 4 -75 2 -100 -14z"/>
<path d="M5109 8866 c-150 -32 -270 -98 -384 -211 -114 -115 -178 -232 -212
-388 -22 -106 -13 -278 21 -382 80 -248 276 -434 533 -507 98 -27 273 -30 375
-5 470 115 716 636 507 1074 -93 194 -280 351 -490 409 -78 21 -269 27 -350
10z m305 -171 c155 -41 309 -164 379 -303 100 -200 86 -430 -38 -612 -167
-246 -490 -330 -761 -198 -81 39 -196 144 -242 220 -203 339 -34 779 343 889
78 23 240 25 319 4z"/>
<path d="M22950 7650 l0 -83 40 -38 c61 -58 125 -74 300 -74 170 0 228 15 291
74 l39 38 0 80 0 81 -62 -15 c-35 -7 -130 -16 -213 -19 -142 -6 -224 2 -367
32 l-28 6 0 -82z"/>
<path d="M26036 6738 c-63 -71 -110 -149 -136 -227 -41 -122 -36 -321 9 -381
63 -86 199 -85 265 3 18 24 22 47 27 150 6 139 16 166 86 238 l44 46 -28 18
c-15 10 -71 61 -124 112 l-97 94 -46 -53z"/>
<path d="M20470 6724 c-30 -30 -83 -78 -117 -106 l-62 -51 49 -54 c62 -68 81
-127 78 -244 -2 -93 11 -131 58 -168 82 -64 199 -39 246 53 18 35 21 58 21
161 0 140 -19 212 -80 312 -40 66 -114 153 -129 153 -6 0 -34 -25 -64 -56z"/>
<path d="M24576 6619 c-34 -134 -77 -201 -210 -331 -92 -90 -139 -127 -193
-156 -40 -20 -73 -40 -73 -44 0 -4 16 -34 35 -67 114 -194 248 -556 305 -826
7 -33 16 -64 20 -68 4 -4 18 9 32 31 41 61 118 129 188 166 165 87 330 67 467
-57 l53 -49 -6 34 c-20 100 -90 368 -130 491 -106 326 -273 670 -436 899 l-34
47 -18 -70z"/>
<path d="M21922 6573 c-241 -371 -420 -826 -517 -1311 l-7 -33 63 50 c140 113
290 129 451 48 61 -30 160 -118 204 -181 l20 -30 28 120 c61 256 173 558 286
763 28 51 50 94 48 95 -2 1 -33 17 -71 35 -53 26 -94 59 -196 159 -112 110
-134 137 -165 204 -20 42 -42 102 -48 132 -7 31 -15 56 -19 56 -4 0 -38 -48
-77 -107z"/>
<path d="M13772 6518 c-23 -100 -60 -158 -166 -264 -66 -67 -120 -111 -156
-129 -30 -15 -56 -28 -57 -30 -2 -1 21 -49 51 -106 91 -175 200 -480 222 -620
l7 -39 54 59 c37 42 75 70 121 93 61 30 75 33 157 33 103 0 137 -14 218 -85
26 -23 47 -36 47 -29 0 32 -83 347 -120 451 -50 146 -128 328 -187 438 -41 77
-168 280 -175 280 -2 0 -9 -24 -16 -52z"/>
<path d="M11643 6473 c-123 -190 -241 -448 -318 -693 -35 -111 -95 -346 -95
-371 0 -7 17 3 38 23 67 65 115 83 217 83 79 0 97 -4 147 -29 62 -31 137 -97
167 -147 l19 -30 12 53 c59 260 127 438 277 728 2 3 -20 16 -49 29 -81 37
-249 206 -293 294 -20 39 -38 88 -41 109 -4 21 -11 38 -16 38 -4 0 -34 -39
-65 -87z"/>
<path d="M19955 6358 c-33 -17 -104 -48 -158 -68 -53 -20 -99 -39 -102 -41 -7
-8 14 -200 31 -268 9 -36 36 -108 61 -160 37 -77 59 -108 126 -176 100 -101
151 -129 220 -122 81 7 137 63 145 145 6 67 -18 114 -84 164 -122 92 -186 271
-171 480 3 43 2 78 -1 78 -4 -1 -34 -15 -67 -32z"/>
<path d="M26594 6273 c0 -214 -41 -325 -159 -430 -37 -32 -73 -70 -81 -85 -22
-42 -18 -119 9 -159 73 -109 184 -104 313 14 146 133 227 314 241 542 l6 100
-70 23 c-38 12 -111 42 -162 67 -51 25 -93 45 -95 45 -1 0 -2 -53 -2 -117z"/>
<path d="M9365 6350 l-180 -5 -177 -93 c-98 -51 -186 -104 -197 -118 -86 -109
-14 -264 121 -264 39 0 76 14 209 80 l161 80 237 0 236 0 -45 -27 c-62 -36
-90 -63 -106 -100 -52 -121 60 -257 184 -224 20 6 107 51 192 102 139 81 167
103 273 207 65 64 125 129 133 144 35 67 2 174 -66 209 -32 18 -62 19 -415 17
-209 -1 -461 -5 -560 -8z"/>
<path d="M15140 6337 c-69 -46 -94 -142 -57 -213 9 -17 79 -89 155 -160 124
-115 154 -137 282 -208 121 -67 151 -80 189 -80 123 0 203 118 156 230 -15 36
-42 62 -101 99 l-33 20 237 0 237 0 146 -77 c129 -69 153 -78 199 -78 66 0
113 27 140 81 27 53 26 113 -5 164 -21 38 -43 52 -202 135 l-178 94 -210 7
c-115 4 -370 7 -566 8 -354 1 -356 1 -389 -22z"/>
<path d="M19323 6104 c9 -230 46 -385 133 -554 89 -172 177 -260 260 -260 44
1 108 34 134 70 49 68 37 144 -35 235 -105 132 -165 329 -165 540 0 106 0 107
-22 101 -82 -21 -222 -17 -292 10 -18 7 -19 2 -13 -142z"/>
<path d="M27235 6233 c-48 -14 -188 -12 -241 3 -20 5 -21 1 -27 -128 -9 -215
-64 -387 -165 -514 -55 -69 -62 -86 -62 -142 0 -110 108 -187 213 -153 100 33
245 271 301 493 35 138 61 439 39 451 -5 2 -30 -3 -58 -10z"/>
<path d="M4165 5777 c-183 -283 -336 -671 -410 -1044 l-6 -32 38 36 c151 143
389 107 524 -80 l28 -38 10 38 c5 21 19 75 31 121 45 178 142 429 214 552 20
34 36 65 36 69 0 5 -12 12 -27 15 -40 11 -99 55 -194 148 -91 88 -150 185
-164 267 -4 23 -10 41 -13 41 -4 0 -34 -42 -67 -93z"/>
<path d="M6296 5828 c-14 -88 -63 -167 -165 -267 -99 -97 -150 -135 -195 -147
-14 -3 -26 -7 -26 -8 0 -1 28 -58 63 -126 92 -181 171 -408 221 -633 l6 -27
43 52 c84 104 221 168 326 154 58 -8 138 -45 184 -86 20 -17 37 -28 37 -23 0
21 -71 297 -100 388 -58 181 -144 381 -228 530 -56 100 -144 235 -153 235 -3
0 -9 -19 -13 -42z"/>
<path d="M10520 3567 c-48 -17 -76 -73 -61 -120 36 -109 237 -196 556 -243
184 -27 301 -32 510 -23 369 16 512 70 491 183 -15 78 -87 99 -197 58 -162
-61 -716 -45 -1014 29 -96 25 -109 31 -160 80 -47 44 -77 53 -125 36z"/>
<path d="M14882 3567 c-12 -7 -29 -23 -38 -35 -49 -70 -277 -122 -632 -142
-140 -8 -231 -8 -335 -1 -147 12 -181 18 -257 47 -80 31 -150 -9 -150 -85 0
-111 129 -154 503 -170 479 -21 935 80 1034 228 42 62 24 129 -43 157 -40 17
-52 17 -82 1z"/>
<path d="M2778 2521 c-29 -26 -33 -36 -33 -78 0 -87 70 -153 227 -213 253 -98
730 -142 1173 -110 460 34 695 121 735 272 24 87 -24 158 -106 158 -54 0 -100
-36 -110 -86 -4 -24 -13 -36 -28 -39 -158 -36 -208 -46 -306 -59 -331 -46
-893 -37 -1197 19 -122 23 -151 38 -173 89 -23 55 -53 76 -107 76 -33 0 -50
-7 -75 -29z"/>
<path d="M5697 2529 c-46 -35 -54 -120 -19 -185 19 -35 76 -80 143 -112 317
-149 1244 -164 1679 -27 239 76 347 188 283 295 -34 59 -125 69 -174 21 -16
-16 -29 -38 -29 -50 0 -70 -210 -112 -650 -130 -363 -16 -674 6 -930 64 -62
14 -114 25 -116 25 -2 0 -4 10 -4 23 0 24 -23 64 -50 84 -25 20 -104 16 -133
-8z"/>
<path d="M20203 2520 c-41 -24 -66 -74 -65 -126 2 -152 221 -277 609 -349 250
-46 412 -59 768 -59 860 0 1305 137 1305 400 0 119 -102 187 -207 138 -41 -20
-64 -53 -72 -102 -6 -35 -10 -38 -56 -49 -356 -88 -746 -121 -1227 -103 -531
21 -811 70 -838 147 -38 110 -132 155 -217 103z"/>
<path d="M23843 2520 c-66 -40 -87 -144 -45 -226 97 -190 468 -290 1152 -310
751 -22 1393 124 1491 340 36 80 14 162 -52 198 -87 47 -189 -3 -213 -104 -12
-53 -156 -93 -438 -123 -176 -18 -644 -37 -743 -30 -38 2 -133 7 -210 10 -174
8 -344 28 -500 61 -66 14 -143 30 -171 36 -49 10 -52 12 -58 48 -16 98 -129
152 -213 100z"/>
</g>
</svg>
